<mxfile host="app.diagrams.net" modified="2022-07-05T13:28:45.560Z" agent="5.0 (Macintosh; Intel Mac OS X 10_15_7) AppleWebKit/537.36 (KHTML, like Gecko) Chrome/102.0.0.0 Safari/537.36" etag="sbGPK9dhpHz9grNSYTh1" version="20.0.4" type="github">
  <diagram id="-lJuhSD0FuLQZpU4vF9l" name="Page-1">
    <mxGraphModel dx="786" dy="457" grid="1" gridSize="10" guides="1" tooltips="1" connect="1" arrows="1" fold="1" page="1" pageScale="1" pageWidth="850" pageHeight="1100" math="0" shadow="0">
      <root>
        <mxCell id="0" />
        <mxCell id="1" parent="0" />
        <mxCell id="sxpBB1kf01GbpWw2AaR--1" style="edgeStyle=orthogonalEdgeStyle;rounded=0;orthogonalLoop=1;jettySize=auto;html=1;exitX=0.5;exitY=1;exitDx=0;exitDy=0;fontSize=10;" edge="1" parent="1" source="sxpBB1kf01GbpWw2AaR--2" target="sxpBB1kf01GbpWw2AaR--4">
          <mxGeometry relative="1" as="geometry" />
        </mxCell>
        <mxCell id="sxpBB1kf01GbpWw2AaR--2" value="r_com$user_comm" style="shape=parallelogram;html=1;strokeWidth=2;perimeter=parallelogramPerimeter;whiteSpace=wrap;rounded=1;arcSize=12;size=0.23;fontSize=10;" vertex="1" parent="1">
          <mxGeometry x="365" y="190" width="120" height="40" as="geometry" />
        </mxCell>
        <mxCell id="sxpBB1kf01GbpWw2AaR--16" style="edgeStyle=orthogonalEdgeStyle;rounded=0;orthogonalLoop=1;jettySize=auto;html=1;entryX=0;entryY=0.5;entryDx=0;entryDy=0;entryPerimeter=0;" edge="1" parent="1" source="sxpBB1kf01GbpWw2AaR--17" target="sxpBB1kf01GbpWw2AaR--15">
          <mxGeometry relative="1" as="geometry">
            <mxPoint x="480" y="430" as="sourcePoint" />
          </mxGeometry>
        </mxCell>
        <mxCell id="sxpBB1kf01GbpWw2AaR--21" style="edgeStyle=orthogonalEdgeStyle;rounded=0;orthogonalLoop=1;jettySize=auto;html=1;exitX=0.5;exitY=1;exitDx=0;exitDy=0;entryX=0.5;entryY=0;entryDx=0;entryDy=0;entryPerimeter=0;" edge="1" parent="1" source="sxpBB1kf01GbpWw2AaR--4" target="sxpBB1kf01GbpWw2AaR--17">
          <mxGeometry relative="1" as="geometry" />
        </mxCell>
        <mxCell id="sxpBB1kf01GbpWw2AaR--4" value="&lt;span style=&quot;color: rgb(0, 0, 0); font-family: Helvetica; font-size: 12px; font-style: normal; font-variant-ligatures: normal; font-variant-caps: normal; font-weight: 400; letter-spacing: normal; orphans: 2; text-align: center; text-indent: 0px; text-transform: none; widows: 2; word-spacing: 0px; -webkit-text-stroke-width: 0px; background-color: rgb(248, 249, 250); text-decoration-thickness: initial; text-decoration-style: initial; text-decoration-color: initial; float: none; display: inline !important;&quot;&gt;ods_communication.R&lt;/span&gt;" style="rounded=1;whiteSpace=wrap;html=1;absoluteArcSize=1;arcSize=14;strokeWidth=2;" vertex="1" parent="1">
          <mxGeometry x="360" y="290" width="130" height="60" as="geometry" />
        </mxCell>
        <mxCell id="sxpBB1kf01GbpWw2AaR--7" style="edgeStyle=orthogonalEdgeStyle;rounded=0;orthogonalLoop=1;jettySize=auto;html=1;exitX=0.5;exitY=1;exitDx=0;exitDy=0;fontSize=10;" edge="1" parent="1" source="sxpBB1kf01GbpWw2AaR--9" target="sxpBB1kf01GbpWw2AaR--2">
          <mxGeometry relative="1" as="geometry" />
        </mxCell>
        <mxCell id="sxpBB1kf01GbpWw2AaR--9" value="Served Module&lt;br&gt;(anywhere in the APP)" style="rounded=1;whiteSpace=wrap;html=1;absoluteArcSize=1;arcSize=14;strokeWidth=2;" vertex="1" parent="1">
          <mxGeometry x="360" y="80" width="130" height="60" as="geometry" />
        </mxCell>
        <mxCell id="sxpBB1kf01GbpWw2AaR--15" value="Modal" style="strokeWidth=2;html=1;shape=mxgraph.flowchart.display;whiteSpace=wrap;" vertex="1" parent="1">
          <mxGeometry x="560" y="400" width="100" height="60" as="geometry" />
        </mxCell>
        <mxCell id="sxpBB1kf01GbpWw2AaR--20" style="edgeStyle=orthogonalEdgeStyle;rounded=0;orthogonalLoop=1;jettySize=auto;html=1;exitX=0.5;exitY=1;exitDx=0;exitDy=0;exitPerimeter=0;entryX=0;entryY=0.5;entryDx=0;entryDy=0;entryPerimeter=0;" edge="1" parent="1" source="sxpBB1kf01GbpWw2AaR--17" target="sxpBB1kf01GbpWw2AaR--19">
          <mxGeometry relative="1" as="geometry" />
        </mxCell>
        <mxCell id="sxpBB1kf01GbpWw2AaR--17" value="User Profile" style="strokeWidth=2;html=1;shape=mxgraph.flowchart.decision;whiteSpace=wrap;" vertex="1" parent="1">
          <mxGeometry x="375" y="380" width="100" height="100" as="geometry" />
        </mxCell>
        <mxCell id="sxpBB1kf01GbpWw2AaR--19" value="Notification" style="strokeWidth=2;html=1;shape=mxgraph.flowchart.display;whiteSpace=wrap;" vertex="1" parent="1">
          <mxGeometry x="560" y="510" width="100" height="60" as="geometry" />
        </mxCell>
        <mxCell id="sxpBB1kf01GbpWw2AaR--22" value="" style="strokeWidth=2;html=1;shape=mxgraph.flowchart.annotation_2;align=left;labelPosition=right;pointerEvents=1;" vertex="1" parent="1">
          <mxGeometry x="470" y="130" width="70" height="170" as="geometry" />
        </mxCell>
        <mxCell id="sxpBB1kf01GbpWw2AaR--23" value="List" style="swimlane;fontStyle=0;childLayout=stackLayout;horizontal=1;startSize=26;fillColor=none;horizontalStack=0;resizeParent=1;resizeParentMax=0;resizeLast=0;collapsible=1;marginBottom=0;" vertex="1" parent="1">
          <mxGeometry x="510" y="133" width="140" height="164" as="geometry">
            <mxRectangle x="510" y="133" width="60" height="30" as="alternateBounds" />
          </mxGeometry>
        </mxCell>
        <mxCell id="sxpBB1kf01GbpWw2AaR--24" value="success" style="text;strokeColor=none;fillColor=none;align=left;verticalAlign=top;spacingLeft=4;spacingRight=4;overflow=hidden;rotatable=0;points=[[0,0.5],[1,0.5]];portConstraint=eastwest;" vertex="1" parent="sxpBB1kf01GbpWw2AaR--23">
          <mxGeometry y="26" width="140" height="26" as="geometry" />
        </mxCell>
        <mxCell id="sxpBB1kf01GbpWw2AaR--25" value="message" style="text;strokeColor=none;fillColor=none;align=left;verticalAlign=top;spacingLeft=4;spacingRight=4;overflow=hidden;rotatable=0;points=[[0,0.5],[1,0.5]];portConstraint=eastwest;" vertex="1" parent="sxpBB1kf01GbpWw2AaR--23">
          <mxGeometry y="52" width="140" height="26" as="geometry" />
        </mxCell>
        <mxCell id="sxpBB1kf01GbpWw2AaR--26" value="source&#xa;" style="text;strokeColor=none;fillColor=none;align=left;verticalAlign=top;spacingLeft=4;spacingRight=4;overflow=hidden;rotatable=0;points=[[0,0.5],[1,0.5]];portConstraint=eastwest;" vertex="1" parent="sxpBB1kf01GbpWw2AaR--23">
          <mxGeometry y="78" width="140" height="26" as="geometry" />
        </mxCell>
        <mxCell id="sxpBB1kf01GbpWw2AaR--27" value="var1" style="text;strokeColor=none;fillColor=none;align=left;verticalAlign=middle;spacingLeft=4;spacingRight=4;overflow=hidden;points=[[0,0.5],[1,0.5]];portConstraint=eastwest;rotatable=0;" vertex="1" parent="sxpBB1kf01GbpWw2AaR--23">
          <mxGeometry y="104" width="140" height="30" as="geometry" />
        </mxCell>
        <mxCell id="sxpBB1kf01GbpWw2AaR--28" value="var2" style="text;strokeColor=none;fillColor=none;align=left;verticalAlign=middle;spacingLeft=4;spacingRight=4;overflow=hidden;points=[[0,0.5],[1,0.5]];portConstraint=eastwest;rotatable=0;" vertex="1" parent="sxpBB1kf01GbpWw2AaR--23">
          <mxGeometry y="134" width="140" height="30" as="geometry" />
        </mxCell>
      </root>
    </mxGraphModel>
  </diagram>
</mxfile>
